<svg width="24" height="24" viewBox="0 0 24 24" fill="none" xmlns="http://www.w3.org/2000/svg">
<g clip-path="url(#clip0_1_9493)">
<path d="M21 20H23V22H1V20H3V3C3 2.73478 3.10536 2.48043 3.29289 2.29289C3.48043 2.10536 3.73478 2 4 2H20C20.2652 2 20.5196 2.10536 20.7071 2.29289C20.8946 2.48043 21 2.73478 21 3V20ZM8 11V13H11V11H8ZM8 7V9H11V7H8ZM8 15V17H11V15H8ZM13 15V17H16V15H13ZM13 11V13H16V11H13ZM13 7V9H16V7H13Z" fill="#FADA05"/>
</g>
<defs>
<clipPath id="clip0_1_9493">
<rect width="24" height="24" fill="white"/>
</clipPath>
</defs>
</svg>
