<svg width="25" height="24" viewBox="0 0 25 24" fill="none" xmlns="http://www.w3.org/2000/svg">
<g clip-path="url(#clip0_120_2422)">
<path d="M17.0208 3H21.0208C21.286 3 21.5403 3.10536 21.7279 3.29289C21.9154 3.48043 22.0208 3.73478 22.0208 4V20C22.0208 20.2652 21.9154 20.5196 21.7279 20.7071C21.5403 20.8946 21.286 21 21.0208 21H3.02075C2.75554 21 2.50118 20.8946 2.31365 20.7071C2.12611 20.5196 2.02075 20.2652 2.02075 20V4C2.02075 3.73478 2.12611 3.48043 2.31365 3.29289C2.50118 3.10536 2.75554 3 3.02075 3H7.02075V1H9.02075V3H15.0208V1H17.0208V3ZM20.0208 11H4.02075V19H20.0208V11ZM15.0208 5H9.02075V7H7.02075V5H4.02075V9H20.0208V5H17.0208V7H15.0208V5ZM6.02075 13H8.02075V15H6.02075V13ZM11.0208 13H13.0208V15H11.0208V13ZM16.0208 13H18.0208V15H16.0208V13Z" fill="#FADA05"/>
</g>
<defs>
<clipPath id="clip0_120_2422">
<rect width="24" height="24" fill="white" transform="translate(0.020752)"/>
</clipPath>
</defs>
</svg>
