<svg width="50" height="50" viewBox="0 0 50 50" fill="none" xmlns="http://www.w3.org/2000/svg">
<path d="M25 18.75C23.3424 18.75 21.7527 19.4085 20.5806 20.5806C19.4085 21.7527 18.75 23.3424 18.75 25C18.75 26.6576 19.4085 28.2473 20.5806 29.4194C21.7527 30.5915 23.3424 31.25 25 31.25C26.6576 31.25 28.2473 30.5915 29.4194 29.4194C30.5915 28.2473 31.25 26.6576 31.25 25C31.25 23.3424 30.5915 21.7527 29.4194 20.5806C28.2473 19.4085 26.6576 18.75 25 18.75ZM25 14.5834C27.7627 14.5834 30.4122 15.6808 32.3657 17.6343C34.3192 19.5878 35.4167 22.2373 35.4167 25C35.4167 27.7627 34.3192 30.4122 32.3657 32.3657C30.4122 34.3192 27.7627 35.4167 25 35.4167C22.2373 35.4167 19.5878 34.3192 17.6343 32.3657C15.6808 30.4122 14.5833 27.7627 14.5833 25C14.5833 22.2373 15.6808 19.5878 17.6343 17.6343C19.5878 15.6808 22.2373 14.5834 25 14.5834ZM38.5417 14.0625C38.5417 14.7532 38.2673 15.4156 37.7789 15.9039C37.2906 16.3923 36.6282 16.6667 35.9375 16.6667C35.2468 16.6667 34.5845 16.3923 34.0961 15.9039C33.6077 15.4156 33.3333 14.7532 33.3333 14.0625C33.3333 13.3719 33.6077 12.7095 34.0961 12.2211C34.5845 11.7327 35.2468 11.4584 35.9375 11.4584C36.6282 11.4584 37.2906 11.7327 37.7789 12.2211C38.2673 12.7095 38.5417 13.3719 38.5417 14.0625ZM25 8.33335C19.8458 8.33335 19.0042 8.34794 16.6063 8.45419C14.9729 8.53127 13.8771 8.75002 12.8604 9.14585C11.9563 9.49585 11.3042 9.9146 10.6104 10.6104C9.95835 11.2404 9.45699 12.0096 9.14375 12.8604C8.74792 13.8813 8.52917 14.975 8.45417 16.6063C8.34584 18.9063 8.33334 19.7104 8.33334 25C8.33334 30.1542 8.34792 30.9959 8.45417 33.3938C8.53126 35.025 8.75 36.1229 9.14375 37.1375C9.49792 38.0438 9.91459 38.6959 10.6063 39.3875C11.3083 40.0875 11.9604 40.5063 12.8563 40.8521C13.8854 41.25 14.9813 41.4709 16.6063 41.5459C18.9063 41.6542 19.7104 41.6667 25 41.6667C30.1542 41.6667 30.9958 41.6521 33.3938 41.5459C35.0229 41.4688 36.1208 41.25 37.1375 40.8563C38.0396 40.5042 38.6958 40.0854 39.3875 39.3938C40.0896 38.6917 40.5083 38.0396 40.8542 37.1438C41.25 36.1167 41.4708 35.0188 41.5458 33.3938C41.6542 31.0938 41.6667 30.2896 41.6667 25C41.6667 19.8459 41.6521 19.0042 41.5458 16.6063C41.4688 14.9771 41.25 13.8771 40.8542 12.8604C40.5402 12.0104 40.0397 11.2416 39.3896 10.6104C38.7599 9.95803 37.9907 9.45662 37.1396 9.14377C36.1188 8.74794 35.0229 8.52919 33.3938 8.45419C31.0938 8.34585 30.2896 8.33335 25 8.33335ZM25 4.16669C30.6604 4.16669 31.3667 4.18752 33.5875 4.29169C35.8063 4.39585 37.3167 4.74377 38.6458 5.26044C40.0208 5.7896 41.1792 6.50627 42.3375 7.66252C43.3969 8.70397 44.2166 9.96375 44.7396 11.3542C45.2542 12.6813 45.6042 14.1938 45.7083 16.4125C45.8063 18.6334 45.8333 19.3396 45.8333 25C45.8333 30.6604 45.8125 31.3667 45.7083 33.5875C45.6042 35.8063 45.2542 37.3167 44.7396 38.6459C44.2181 40.0371 43.3982 41.2971 42.3375 42.3375C41.2958 43.3965 40.0361 44.2162 38.6458 44.7396C37.3188 45.2542 35.8063 45.6042 33.5875 45.7084C31.3667 45.8063 30.6604 45.8334 25 45.8334C19.3396 45.8334 18.6333 45.8125 16.4125 45.7084C14.1938 45.6042 12.6833 45.2542 11.3542 44.7396C9.96318 44.2177 8.70319 43.3978 7.6625 42.3375C6.60294 41.2962 5.7832 40.0364 5.26042 38.6459C4.74376 37.3188 4.39584 35.8063 4.29167 33.5875C4.19375 31.3667 4.16667 30.6604 4.16667 25C4.16667 19.3396 4.1875 18.6334 4.29167 16.4125C4.39584 14.1917 4.74376 12.6834 5.26042 11.3542C5.78175 9.96289 6.60168 8.70277 7.6625 7.66252C8.70349 6.60259 9.9634 5.78279 11.3542 5.26044C12.6833 4.74377 14.1917 4.39585 16.4125 4.29169C18.6333 4.19377 19.3396 4.16669 25 4.16669Z" fill="#FADA05"/>
</svg>
