<svg width="50" height="50" viewBox="0 0 50 50" fill="none" xmlns="http://www.w3.org/2000/svg">
<path d="M14.4583 10.4167C14.4578 11.5217 14.0183 12.5813 13.2365 13.3623C12.4547 14.1434 11.3947 14.5818 10.2896 14.5813C9.18451 14.5807 8.12493 14.1412 7.34392 13.3594C6.5629 12.5776 6.12445 11.5176 6.125 10.4125C6.12555 9.30744 6.56507 8.24785 7.34686 7.46684C8.12865 6.68583 9.18868 6.24737 10.2938 6.24793C11.3988 6.24848 12.4584 6.68799 13.2394 7.46979C14.0204 8.25158 14.4589 9.31161 14.4583 10.4167ZM14.5833 17.6667H6.25V43.75H14.5833V17.6667ZM27.75 17.6667H19.4583V43.75H27.6667V30.0625C27.6667 22.4375 37.6042 21.7292 37.6042 30.0625V43.75H45.8333V27.2292C45.8333 14.375 31.125 14.8542 27.6667 21.1667L27.75 17.6667Z" fill="#FADA05"/>
</svg>
