<svg width="24" height="24" viewBox="0 0 24 24" fill="none" xmlns="http://www.w3.org/2000/svg">
<g clip-path="url(#clip0_1_16899)">
<path d="M4 3H20C20.2652 3 20.5196 3.10536 20.7071 3.29289C20.8946 3.48043 21 3.73478 21 4V20C21 20.2652 20.8946 20.5196 20.7071 20.7071C20.5196 20.8946 20.2652 21 20 21H4C3.73478 21 3.48043 20.8946 3.29289 20.7071C3.10536 20.5196 3 20.2652 3 20V4C3 3.73478 3.10536 3.48043 3.29289 3.29289C3.48043 3.10536 3.73478 3 4 3ZM5 5V19H19V5H5ZM11 12.792C10.4736 12.5623 10.0424 12.1583 9.77878 11.648C9.51521 11.1377 9.43539 10.5522 9.55273 9.98994C9.67008 9.4277 9.97744 8.92302 10.4231 8.56075C10.8688 8.19847 11.4256 8.00071 12 8.00071C12.5744 8.00071 13.1312 8.19847 13.5769 8.56075C14.0226 8.92302 14.3299 9.4277 14.4473 9.98994C14.5646 10.5522 14.4848 11.1377 14.2212 11.648C13.9576 12.1583 13.5264 12.5623 13 12.792V16H11V12.792Z" fill="#FADA05"/>
</g>
<defs>
<clipPath id="clip0_1_16899">
<rect width="24" height="24" fill="white"/>
</clipPath>
</defs>
</svg>
