<svg width="26" height="27" viewBox="0 0 26 27" fill="none" xmlns="http://www.w3.org/2000/svg">
<g clip-path="url(#clip0_120_2425)">
<path d="M12.8705 25.7391L6.04487 18.9135C4.6949 17.5635 3.77557 15.8435 3.40312 13.971C3.03068 12.0986 3.22184 10.1577 3.95245 8.3939C4.68305 6.63007 5.92028 5.12251 7.50768 4.06185C9.09508 3.00119 10.9614 2.43506 12.8705 2.43506C14.7797 2.43506 16.6459 3.00119 18.2333 4.06185C19.8207 5.12251 21.058 6.63007 21.7886 8.3939C22.5192 10.1577 22.7103 12.0986 22.3379 13.971C21.9654 15.8435 21.0461 17.5635 19.6961 18.9135L12.8705 25.7391ZM18.1796 17.3969C19.2295 16.3469 19.9444 15.0091 20.2341 13.5528C20.5237 12.0964 20.375 10.5869 19.8067 9.21509C19.2384 7.84327 18.2761 6.67076 17.0415 5.84583C15.8069 5.0209 14.3554 4.58059 12.8705 4.58059C11.3856 4.58059 9.93412 5.0209 8.69949 5.84583C7.46486 6.67076 6.50257 7.84327 5.9343 9.21509C5.36603 10.5869 5.21731 12.0964 5.50694 13.5528C5.79656 15.0091 6.51153 16.3469 7.56144 17.3969L12.8705 22.706L18.1796 17.3969ZM12.8705 14.2329C12.3016 14.2329 11.756 14.0069 11.3537 13.6046C10.9514 13.2023 10.7254 12.6567 10.7254 12.0878C10.7254 11.5189 10.9514 10.9733 11.3537 10.571C11.756 10.1687 12.3016 9.94275 12.8705 9.94275C13.4394 9.94275 13.985 10.1687 14.3873 10.571C14.7896 10.9733 15.0156 11.5189 15.0156 12.0878C15.0156 12.6567 14.7896 13.2023 14.3873 13.6046C13.985 14.0069 13.4394 14.2329 12.8705 14.2329Z" fill="#FADA05"/>
</g>
<defs>
<clipPath id="clip0_120_2425">
<rect width="25.7409" height="25.7409" fill="white" transform="translate(0 0.290039)"/>
</clipPath>
</defs>
</svg>
