<svg width="24" height="24" viewBox="0 0 24 24" fill="none" xmlns="http://www.w3.org/2000/svg">
<g clip-path="url(#clip0_1_16865)">
<path d="M10.758 11.8275L18.607 3.97852L20.021 5.39252L18.607 6.80752L21.081 9.28152L19.667 10.6965L17.192 8.22152L15.778 9.63552L17.899 11.7565L16.485 13.1715L14.364 11.0495L12.172 13.2415C12.8525 14.2755 13.1254 15.5251 12.9379 16.7486C12.7505 17.9722 12.1161 19.0828 11.1573 19.8657C10.1985 20.6485 8.98349 21.0481 7.74718 20.9872C6.51088 20.9262 5.34109 20.409 4.46401 19.5355C3.58504 18.6598 3.06304 17.4886 2.99946 16.2495C2.93589 15.0104 3.33528 13.792 4.12002 12.8309C4.90476 11.8699 6.01878 11.235 7.24557 11.0495C8.47236 10.8641 9.72428 11.1414 10.758 11.8275ZM10.121 18.1205C10.4123 17.845 10.6454 17.5138 10.8066 17.1466C10.9677 16.7795 11.0536 16.3837 11.0592 15.9827C11.0648 15.5818 10.9899 15.1838 10.8391 14.8123C10.6882 14.4408 10.4644 14.1032 10.1808 13.8197C9.89728 13.5362 9.55977 13.3123 9.18825 13.1615C8.81673 13.0106 8.41873 12.9357 8.01778 12.9413C7.61683 12.9469 7.22107 13.0328 6.85389 13.1939C6.48671 13.3551 6.15555 13.5882 5.88001 13.8795C5.33353 14.4453 5.03115 15.2031 5.03799 15.9897C5.04482 16.7763 5.36033 17.5287 5.91655 18.085C6.47278 18.6412 7.22521 18.9567 8.0118 18.9635C8.79839 18.9704 9.5562 18.668 10.122 18.1215L10.121 18.1205Z" fill="#FADA05"/>
</g>
<defs>
<clipPath id="clip0_1_16865">
<rect width="24" height="24" fill="white"/>
</clipPath>
</defs>
</svg>
