<svg width="27" height="26" viewBox="0 0 27 26" fill="none" xmlns="http://www.w3.org/2000/svg">
<g clip-path="url(#clip0_120_2431)">
<path d="M13.4404 12.0156C14.8626 12.0156 16.2267 12.5806 17.2324 13.5863C18.2381 14.592 18.8031 15.9561 18.8031 17.3783V23.8136H16.658V17.3783C16.658 16.5576 16.3444 15.7679 15.7814 15.1708C15.2184 14.5736 14.4484 14.2142 13.6291 14.1661L13.4404 14.1607C12.6196 14.1607 11.8299 14.4743 11.2328 15.0373C10.6357 15.6003 10.2763 16.3703 10.2281 17.1896L10.2227 17.3783V23.8136H8.07766V17.3783C8.07766 15.9561 8.64266 14.592 9.64836 13.5863C10.6541 12.5806 12.0181 12.0156 13.4404 12.0156ZM6.46885 15.2333C6.76809 15.2333 7.05875 15.2687 7.33761 15.3341C7.15423 15.88 7.04563 16.4483 7.01477 17.0233L7.00512 17.3783V17.4706C6.88184 17.4265 6.7536 17.3976 6.6233 17.3848L6.46885 17.3783C6.06892 17.3784 5.68333 17.5273 5.38728 17.7962C5.09123 18.0651 4.90594 18.4346 4.86755 18.8327L4.86004 18.9871V23.8136H2.71497V18.9871C2.71497 17.9916 3.11046 17.0367 3.81445 16.3327C4.51844 15.6288 5.47326 15.2333 6.46885 15.2333ZM20.4119 15.2333C21.4075 15.2333 22.3623 15.6288 23.0663 16.3327C23.7702 17.0367 24.1657 17.9916 24.1657 18.9871V23.8136H22.0207V18.9871C22.0206 18.5872 21.8717 18.2016 21.6028 17.9056C21.3339 17.6095 20.9644 17.4242 20.5663 17.3858L20.4119 17.3783C20.2242 17.3783 20.044 17.4105 19.8756 17.4695V17.3783C19.8756 16.664 19.7598 15.9776 19.5442 15.3362C19.822 15.2687 20.1126 15.2333 20.4119 15.2333ZM6.46885 8.79803C7.17999 8.79803 7.862 9.08052 8.36485 9.58338C8.8677 10.0862 9.1502 10.7682 9.1502 11.4794C9.1502 12.1905 8.8677 12.8725 8.36485 13.3754C7.862 13.8782 7.17999 14.1607 6.46885 14.1607C5.75771 14.1607 5.0757 13.8782 4.57285 13.3754C4.07 12.8725 3.7875 12.1905 3.7875 11.4794C3.7875 10.7682 4.07 10.0862 4.57285 9.58338C5.0757 9.08052 5.75771 8.79803 6.46885 8.79803ZM20.4119 8.79803C21.123 8.79803 21.805 9.08052 22.3079 9.58338C22.8107 10.0862 23.0932 10.7682 23.0932 11.4794C23.0932 12.1905 22.8107 12.8725 22.3079 13.3754C21.805 13.8782 21.123 14.1607 20.4119 14.1607C19.7007 14.1607 19.0187 13.8782 18.5159 13.3754C18.013 12.8725 17.7305 12.1905 17.7305 11.4794C17.7305 10.7682 18.013 10.0862 18.5159 9.58338C19.0187 9.08052 19.7007 8.79803 20.4119 8.79803ZM6.46885 10.9431C6.32662 10.9431 6.19022 10.9996 6.08965 11.1002C5.98908 11.2007 5.93258 11.3371 5.93258 11.4794C5.93258 11.6216 5.98908 11.758 6.08965 11.8586C6.19022 11.9591 6.32662 12.0156 6.46885 12.0156C6.61108 12.0156 6.74748 11.9591 6.84805 11.8586C6.94862 11.758 7.00512 11.6216 7.00512 11.4794C7.00512 11.3371 6.94862 11.2007 6.84805 11.1002C6.74748 10.9996 6.61108 10.9431 6.46885 10.9431ZM20.4119 10.9431C20.2696 10.9431 20.1332 10.9996 20.0327 11.1002C19.9321 11.2007 19.8756 11.3371 19.8756 11.4794C19.8756 11.6216 19.9321 11.758 20.0327 11.8586C20.1332 11.9591 20.2696 12.0156 20.4119 12.0156C20.5541 12.0156 20.6905 11.9591 20.7911 11.8586C20.8916 11.758 20.9481 11.6216 20.9481 11.4794C20.9481 11.3371 20.8916 11.2007 20.7911 11.1002C20.6905 10.9996 20.5541 10.9431 20.4119 10.9431ZM13.4404 2.36279C14.5782 2.36279 15.6694 2.81479 16.474 3.61935C17.2785 4.42391 17.7305 5.51513 17.7305 6.65295C17.7305 7.79077 17.2785 8.88199 16.474 9.68655C15.6694 10.4911 14.5782 10.9431 13.4404 10.9431C12.3025 10.9431 11.2113 10.4911 10.4068 9.68655C9.6022 8.88199 9.1502 7.79077 9.1502 6.65295C9.1502 5.51513 9.6022 4.42391 10.4068 3.61935C11.2113 2.81479 12.3025 2.36279 13.4404 2.36279ZM13.4404 4.50787C12.8714 4.50787 12.3258 4.73387 11.9236 5.13615C11.5213 5.53843 11.2953 6.08404 11.2953 6.65295C11.2953 7.22186 11.5213 7.76747 11.9236 8.16975C12.3258 8.57203 12.8714 8.79803 13.4404 8.79803C14.0093 8.79803 14.5549 8.57203 14.9572 8.16975C15.3594 7.76747 15.5854 7.22186 15.5854 6.65295C15.5854 6.08404 15.3594 5.53843 14.9572 5.13615C14.5549 4.73387 14.0093 4.50787 13.4404 4.50787Z" fill="#FADA05"/>
</g>
<defs>
<clipPath id="clip0_120_2431">
<rect width="25.7409" height="25.7409" fill="white" transform="translate(0.569946 0.217773)"/>
</clipPath>
</defs>
</svg>
