<svg width="50" height="50" viewBox="0 0 50 50" fill="none" xmlns="http://www.w3.org/2000/svg">
<g clip-path="url(#clip0_190_1866)">
<path d="M46.1708 11.7834C44.5803 12.4869 42.8937 12.9489 41.1667 13.1542C42.987 12.0655 44.3494 10.3521 45 8.33336C43.2917 9.35003 41.4188 10.0625 39.4667 10.4479C38.1554 9.04499 36.4174 8.11454 34.5228 7.80125C32.6282 7.48796 30.6832 7.80939 28.9901 8.71556C27.2971 9.62173 25.9508 11.0619 25.1607 12.8121C24.3705 14.5623 24.1807 16.5246 24.6208 18.3938C21.1565 18.2201 17.7674 17.3199 14.6735 15.7514C11.5797 14.183 8.85027 11.9814 6.6625 9.28961C5.88811 10.6197 5.48116 12.1318 5.48334 13.6709C5.48334 16.6917 7.02084 19.3604 9.35834 20.9229C7.97502 20.8794 6.62215 20.5058 5.4125 19.8334V19.9417C5.41292 21.9536 6.10911 23.9034 7.38302 25.4606C8.65693 27.0177 10.4302 28.0864 12.4021 28.4854C11.118 28.8334 9.77148 28.8847 8.46459 28.6354C9.02056 30.3672 10.1042 31.8817 11.5637 32.9669C13.0233 34.0522 14.7857 34.6538 16.6042 34.6875C14.7968 36.107 12.7275 37.1562 10.5143 37.7754C8.30122 38.3945 5.98777 38.5714 3.70625 38.2959C7.68896 40.8572 12.3252 42.217 17.0604 42.2125C33.0875 42.2125 41.8521 28.9354 41.8521 17.4209C41.8521 17.0459 41.8417 16.6667 41.825 16.2959C43.531 15.0629 45.0033 13.5355 46.1729 11.7854L46.1708 11.7834Z" fill="#FADA05"/>
</g>
<defs>
<clipPath id="clip0_190_1866">
<rect width="50" height="50" fill="white"/>
</clipPath>
</defs>
</svg>
