<svg width="224" height="97" viewBox="0 0 224 97" fill="none" xmlns="http://www.w3.org/2000/svg">
<g clip-path="url(#clip0_70_1972)">
<path d="M119.767 2.48633L105.412 20.7229H113.707L109.383 34.4561L124.819 15.3165H116.635L119.767 2.48633Z" stroke="#FADA05" stroke-width="2" stroke-miterlimit="10"/>
<path d="M103.787 24.3408L105.494 27.6129" stroke="#FADA05" stroke-width="2" stroke-miterlimit="10"/>
<path d="M106.233 29.2197L107.096 31.0434" stroke="#FADA05" stroke-width="2" stroke-miterlimit="10"/>
<path d="M100.789 32.4507L104.115 33.5472" stroke="#FADA05" stroke-width="2" stroke-miterlimit="10"/>
<path d="M98.278 39.7688L105.33 36.3208" stroke="#FADA05" stroke-width="2" stroke-miterlimit="10"/>
<path d="M103.435 45.4039L104.737 43.3223" stroke="#FADA05" stroke-width="2" stroke-miterlimit="10"/>
<path d="M105.693 41.5337L107.635 38.2734" stroke="#FADA05" stroke-width="2" stroke-miterlimit="10"/>
<path d="M112.903 42.255L110.921 38.332" stroke="#FADA05" stroke-width="2" stroke-miterlimit="10"/>
<path d="M117.632 38.2734L115.573 37.646" stroke="#FADA05" stroke-width="2" stroke-miterlimit="10"/>
<path d="M121.457 30.6562L114.012 34.2625" stroke="#FADA05" stroke-width="2" stroke-miterlimit="10"/>
<path d="M38.3268 43.8442H88.3457" stroke="#FADA05" stroke-width="2" stroke-miterlimit="10"/>
<path d="M2.71625 55.1846H213.323" stroke="#FADA05" stroke-width="2" stroke-miterlimit="10"/>
<path d="M126.18 43.8794H176.099" stroke="#FADA05" stroke-width="2" stroke-miterlimit="10"/>
<path d="M2.71625 85.3485L6.00157 82.9443C7.10449 84.9321 8.54769 85.7824 10.1903 85.7824C12.7013 85.7824 14.0037 84.422 14.0037 80.5929V62.5791H18.7674V81.0034C18.7674 85.9114 16.3503 89.9223 10.7477 89.9223C6.98716 89.9223 4.42344 88.3801 2.71625 85.3485V85.3485Z" fill="#202530"/>
<path d="M25.9305 75.8958C25.9305 67.2114 30.7764 62.0864 37.7753 62.0864C44.7742 62.0864 49.62 67.2349 49.62 75.8958C49.62 84.5567 44.7742 89.9163 37.7753 89.9163C30.7764 89.9163 25.9305 84.5802 25.9305 75.8958ZM44.7272 75.8958C44.7272 69.8678 41.9993 66.2263 37.7753 66.2263C33.5513 66.2263 30.8233 69.8736 30.8233 75.8958C30.8233 81.918 33.5513 85.7823 37.7753 85.7823C41.9993 85.7823 44.7272 81.9239 44.7272 75.8958Z" fill="#202530"/>
<path d="M56.9122 62.5791H65.5069C71.0274 62.5791 75.0871 64.2679 75.0871 69.1994C75.0871 71.7267 73.7084 74.1895 71.3559 75.0105V75.1747C74.3303 75.849 76.5127 77.919 76.5127 81.5487C76.5127 86.92 72.1127 89.4297 66.1933 89.4297H56.9122V62.5791V62.5791ZM65.0786 73.6618C68.8215 73.6618 70.4172 72.2017 70.4172 69.8679C70.4172 67.2761 68.6572 66.2909 65.1783 66.2909H61.6818V73.6618H65.0845H65.0786ZM65.7005 85.712C69.6428 85.712 71.8428 84.2988 71.8428 81.279C71.8428 78.4526 69.7074 77.2212 65.7005 77.2212H61.6759V85.712H65.7005Z" fill="#202530"/>
<path d="M91.5782 85.9875L94.3532 82.7214C96.2774 84.5509 98.8529 85.7823 101.352 85.7823C104.373 85.7823 106.034 84.4101 106.034 82.3168C106.034 80.1061 104.297 79.4024 101.862 78.3645L98.1899 76.7695C95.5441 75.6671 92.7633 73.5737 92.7633 69.6508C92.7633 65.3761 96.5414 62.0806 101.78 62.0806C104.919 62.0806 107.958 63.3765 110.058 65.5051L107.612 68.5249C105.905 67.0707 104.08 66.2205 101.78 66.2205C99.2342 66.2205 97.574 67.4108 97.574 69.3752C97.574 71.4862 99.6214 72.2661 101.845 73.175L105.47 74.6937C108.668 76.0248 110.897 78.042 110.897 81.9356C110.897 86.2866 107.283 89.9163 101.252 89.9163C97.6209 89.9163 94.1244 88.4855 91.5782 85.9817V85.9875Z" fill="#202530"/>
<path d="M117.685 62.5791H126.145C132.111 62.5791 136.528 64.6491 136.528 70.853C136.528 77.057 132.093 79.555 126.309 79.555H122.449V89.4239H117.685V62.5732V62.5791ZM125.916 75.7493C129.923 75.7493 131.829 74.1544 131.829 70.8589C131.829 67.5634 129.741 66.3906 125.751 66.3906H122.449V75.7493H125.916V75.7493Z" fill="#202530"/>
<path d="M146.684 62.5791H152.269L161.027 89.4297H155.982L151.893 75.1454C151.037 72.3072 150.25 69.2404 149.464 66.2968H149.3C148.561 69.2698 147.775 72.3072 146.918 75.1454L142.794 89.4297H137.931L146.684 62.5791V62.5791ZM143.105 78.4174H155.753V82.1527H143.105V78.4174Z" fill="#202530"/>
<path d="M165.979 62.5791H175.031C180.616 62.5791 184.922 64.5494 184.922 70.5422C184.922 76.5351 180.616 78.9334 175.031 78.9334H170.743V89.4239H165.979V62.5732V62.5791ZM174.538 75.1219C178.217 75.1219 180.223 73.5973 180.223 70.5422C180.223 67.4872 178.217 66.3906 174.538 66.3906H170.743V75.1278H174.538V75.1219ZM174.134 77.661L177.583 74.8228L185.973 89.4297H180.616L174.134 77.6668V77.661Z" fill="#202530"/>
<path d="M192.179 62.5791H196.943V74.7818H197.072L206.635 62.5791H211.926L203.66 73.0578L213.323 89.4297H208.066L200.803 76.8048L196.943 81.6015V89.4356H192.179V62.585V62.5791Z" fill="#202530"/>
</g>
<defs>
<clipPath id="clip0_70_1972">
<rect width="224" height="97" fill="white"/>
</clipPath>
</defs>
</svg>
