<svg width="326" height="141" viewBox="0 0 326 141" fill="none" xmlns="http://www.w3.org/2000/svg">
<g clip-path="url(#clip0_190_1830)">
<path d="M174.304 3.61401L153.412 30.1229H165.485L159.192 50.0855L181.656 22.264H169.745L174.304 3.61401Z" stroke="#FADA05" stroke-width="2" stroke-miterlimit="10"/>
<path d="M151.047 35.3821L153.531 40.1383" stroke="#FADA05" stroke-width="2" stroke-miterlimit="10"/>
<path d="M154.607 42.4739L155.862 45.1248" stroke="#FADA05" stroke-width="2" stroke-miterlimit="10"/>
<path d="M146.684 47.1705L151.525 48.7645" stroke="#FADA05" stroke-width="2" stroke-miterlimit="10"/>
<path d="M143.029 57.8081L153.292 52.7961" stroke="#FADA05" stroke-width="2" stroke-miterlimit="10"/>
<path d="M150.534 65.9994L152.43 62.9735" stroke="#FADA05" stroke-width="2" stroke-miterlimit="10"/>
<path d="M153.822 60.3738L156.648 55.6346" stroke="#FADA05" stroke-width="2" stroke-miterlimit="10"/>
<path d="M164.315 61.4222L161.429 55.7198" stroke="#FADA05" stroke-width="2" stroke-miterlimit="10"/>
<path d="M171.197 55.6346L168.2 54.7225" stroke="#FADA05" stroke-width="2" stroke-miterlimit="10"/>
<path d="M176.763 44.5623L165.929 49.8044" stroke="#FADA05" stroke-width="2" stroke-miterlimit="10"/>
<path d="M55.7791 63.7321H128.575" stroke="#FADA05" stroke-width="2" stroke-miterlimit="10"/>
<path d="M3.95312 80.2171H310.461" stroke="#FADA05" stroke-width="2" stroke-miterlimit="10"/>
<path d="M183.636 63.7833H256.287" stroke="#FADA05" stroke-width="2" stroke-miterlimit="10"/>
<path d="M3.95312 124.063L8.73443 120.569C10.3396 123.458 12.44 124.694 14.8306 124.694C18.4849 124.694 20.3803 122.717 20.3803 117.151V90.9656H27.3132V117.747C27.3132 124.882 23.7956 130.712 15.6417 130.712C10.1688 130.712 6.4377 128.47 3.95312 124.063V124.063Z" fill="white"/>
<path d="M37.7382 110.323C37.7382 97.6993 44.7907 90.2495 54.9766 90.2495C65.1625 90.2495 72.2149 97.7334 72.2149 110.323C72.2149 122.913 65.1625 130.703 54.9766 130.703C44.7907 130.703 37.7382 122.947 37.7382 110.323ZM65.0941 110.323C65.0941 101.561 61.124 96.2673 54.9766 96.2673C48.8292 96.2673 44.859 101.569 44.859 110.323C44.859 119.077 48.8292 124.694 54.9766 124.694C61.124 124.694 65.0941 119.085 65.0941 110.323Z" fill="white"/>
<path d="M82.8277 90.9656H95.336C103.37 90.9656 109.279 93.4204 109.279 100.589C109.279 104.263 107.272 107.843 103.848 109.036V109.275C108.177 110.255 111.353 113.264 111.353 118.54C111.353 126.348 104.95 129.996 96.3349 129.996H82.8277V90.9656V90.9656ZM94.7127 107.075C100.16 107.075 102.482 104.953 102.482 101.561C102.482 97.7931 99.9209 96.3611 94.8578 96.3611H89.7691V107.075H94.7212H94.7127ZM95.6177 124.592C101.355 124.592 104.557 122.538 104.557 118.148C104.557 114.039 101.449 112.249 95.6177 112.249H89.7606V124.592H95.6177Z" fill="white"/>
<path d="M133.279 124.992L137.318 120.245C140.118 122.904 143.866 124.694 147.503 124.694C151.901 124.694 154.317 122.699 154.317 119.657C154.317 116.443 151.79 115.42 148.246 113.911L142.901 111.593C139.051 109.991 135.004 106.948 135.004 101.245C135.004 95.0314 140.502 90.241 148.127 90.241C152.695 90.241 157.117 92.1248 160.174 95.2189L156.614 99.6086C154.129 97.4947 151.474 96.2588 148.127 96.2588C144.421 96.2588 142.005 97.9891 142.005 100.845C142.005 103.913 144.985 105.047 148.221 106.368L153.497 108.576C158.15 110.511 161.395 113.443 161.395 119.102C161.395 125.427 156.135 130.703 147.358 130.703C142.073 130.703 136.985 128.624 133.279 124.984V124.992Z" fill="white"/>
<path d="M171.273 90.9656H183.585C192.268 90.9656 198.698 93.9744 198.698 102.993C198.698 112.011 192.243 115.642 183.824 115.642H178.206V129.987H171.273V90.957V90.9656ZM183.252 110.11C189.084 110.11 191.859 107.791 191.859 103.001C191.859 98.2107 188.819 96.506 183.013 96.506H178.206V110.11H183.252V110.11Z" fill="white"/>
<path d="M213.477 90.9656H221.605L234.353 129.996H227.01L221.059 109.232C219.812 105.106 218.668 100.649 217.524 96.3696H217.285C216.209 100.691 215.065 105.106 213.818 109.232L207.816 129.996H200.738L213.477 90.9656V90.9656ZM208.269 113.988H226.677V119.418H208.269V113.988Z" fill="white"/>
<path d="M241.559 90.9656H254.733C262.861 90.9656 269.128 93.8295 269.128 102.541C269.128 111.252 262.861 114.738 254.733 114.738H248.492V129.987H241.559V90.957V90.9656ZM254.016 109.198C259.369 109.198 262.289 106.982 262.289 102.541C262.289 98.0999 259.369 96.506 254.016 96.506H248.492V109.206H254.016V109.198ZM253.427 112.889L258.447 108.763L270.656 129.996H262.861L253.427 112.897V112.889Z" fill="white"/>
<path d="M279.69 90.9656H286.622V108.704H286.81L300.727 90.9656H308.429L296.399 106.198L310.461 129.996H302.811L292.241 111.644L286.622 118.617V130.004H279.69V90.9741V90.9656Z" fill="white"/>
</g>
<defs>
<clipPath id="clip0_190_1830">
<rect width="326" height="141" fill="white"/>
</clipPath>
</defs>
</svg>
